<svg
                    xmlns="http://www.w3.org/2000/svg"
                    viewBox="0 0 201 231.2"
                    class="benef__svg"
                  >
                    <path
                      d="M13.1 149.2C5.9 149.2 0 143.7 0 137V85c0-6.7 5.9-12.2 13.1-12.2 7.2 0 13.1 5.5 13.1 12.2v52.1c0 6.7-5.9 12.1-13.1 12.1zm0-67.1c-2.1 0-3.9 1.3-3.9 2.9v52.1c0 1.6 1.8 2.9 3.9 2.9 2.1 0 3.9-1.3 3.9-2.9V85c0-1.6-1.8-2.9-3.9-2.9zM187.9 149.8c-7.2 0-13.1-5.5-13.1-12.2v-52c0-6.7 5.9-12.2 13.1-12.2 7.2 0 13.1 5.5 13.1 12.2v52.1c0 6.7-5.9 12.1-13.1 12.1zm0-67.1c-2.1 0-3.9 1.3-3.9 2.9v52.1c0 1.6 1.8 2.9 3.9 2.9 2.1 0 3.9-1.3 3.9-2.9V85.6c-.1-1.6-1.8-2.9-3.9-2.9zM155.8 48c-2.4-7.7-8.8-19.2-20.1-27.9L145 7.8c1.6-2 1.2-4.9-.9-6.5-2-1.5-4.9-1.1-6.5.9L127.8 15c-8-4.3-17.8-7.2-29.6-7.2-11.4 0-20.5 2.6-27.8 6.6L61 1.8c-1.5-2-4.5-2.4-6.5-.9s-2.4 4.5-.9 6.5l9.3 12.3C52.1 28.8 47.2 41.2 46 49.4c-.4 2.7.4 5.3 2.2 7.4 1.8 2 4.3 3.2 7 3.2H147c2.9 0 5.7-1.4 7.4-3.8 1.8-2.4 2.3-5.4 1.4-8.2zM55.2 50.7S60 17.1 98.4 17.1c38.4 0 48.6 33.6 48.6 33.6H55.2zM151 81.9H50.7c-7.7 0-13.9 5.9-13.9 13.2v65.5c0 10.6 3.6 23 19.1 26.2V219c0 6.7 5.9 12.2 13.1 12.2 7.2 0 13.1-5.5 13.1-12.2v-31.2h36.6V219c0 6.7 5.9 12.2 13.1 12.2 7.2 0 13.1-5.5 13.1-12.2v-31.8c13.8-2.1 19.9-10.3 19.9-26.5V95.2c.1-7.3-6.1-13.3-13.8-13.3zM72.9 219c0 1.6-1.8 2.9-3.9 2.9-2.1 0-3.9-1.3-3.9-2.9v-31.2h7.7V219zm59 3c-2.1 0-3.9-1.3-3.9-2.9v-31.2h7.7V219c.1 1.6-1.7 3-3.8 3zm23.8-61.3c0 14.1-4.6 17.9-18.5 17.9H64.6c-12.2 0-18.5-4.6-18.5-17.9V95.2c0-2.2 2.1-4 4.6-4H151c2.6 0 4.6 1.8 4.6 4v65.5z"
                    ></path>
                  </svg>