<svg
                    xmlns="http://www.w3.org/2000/svg"
                    viewBox="0 0 146.5 182.4"
                    class="benef__svg"
                  >
                    <path
                      d="M139 123c-5.5-5.6-11.8-12-11.8-25.1 0-20.7 13.5-26 14-26.2 1.2-.4 2.1-1.4 2.5-2.7.4-1.2.1-2.6-.7-3.6-.5-.6-11.4-14.1-30.3-14.8-10.2-.4-16.6 1.6-22.3 3.4-4.5 1.4-8.4 2.6-13.8 2.6-5.3 0-8-1.1-11.4-2.6-4.5-1.9-9.6-4.1-20.5-4.1C23.1 49.9 0 70.5 0 101.2c0 30.6 27.2 80.6 48.6 80.6 10.5 0 14.6-1.2 18.2-2.3 2.9-.9 5.4-1.6 11.7-1.6 7.2 0 10.6 1.1 14.3 2.4 3.5 1.1 7 2.3 13 2.3 13.8 0 40.6-35.6 40.6-46.6.1-5.4-3.6-9.1-7.4-13zm-33.1 51.4c-4.7 0-7.3-.9-10.5-1.9-3.9-1.3-8.4-2.8-16.8-2.8-7.5 0-10.8 1-14 2-3.3 1-6.6 2-15.9 2-14.4.1-40.7-42.6-40.7-72.5C8 73 29.3 57.9 44.6 57.9c9.3 0 13.4 1.7 17.4 3.4 3.8 1.6 7.6 3.2 14.5 3.2 6.6 0 11.5-1.5 16.2-3 5.6-1.7 10.8-3.4 19.6-3 9.7.4 17 5.1 20.9 8.4-5.7 4.1-14.1 13-14.1 30.8 0 16.4 8.1 24.7 14.1 30.7 2.8 2.8 5.2 5.3 5.2 7.2.1 10.1-25.7 38.8-32.5 38.8zM72.5 44.6c.9.1 1.8.1 2.7.1 27.1 0 34.2-26.6 34.2-40.7 0-1.1-.5-2.2-1.3-3-.8-.8-1.9-1.1-3.1-1-38 3.7-36.2 40.5-36.2 40.8.1 2.1 1.7 3.7 3.7 3.8zm28.6-35.9c-1 8.8-5.5 27-24.2 28 .5-7.5 4.2-23.9 24.2-28z"
                    ></path>
                  </svg>