<?xml version="1.0" encoding="utf-8"?>
<!-- Generator: Adobe Illustrator 23.0.2, SVG Export Plug-In . SVG Version: 6.00 Build 0)  -->
<svg version="1.1" id="Слой_1" xmlns="http://www.w3.org/2000/svg" xmlns:xlink="http://www.w3.org/1999/xlink" x="0px" y="0px"
	 viewBox="0 0 1283 273" style="enable-background:new 0 0 1283 273;" xml:space="preserve">
<style type="text/css">
	.st0{opacity:0.61;fill:url(#SVGID_1_);enable-background:new    ;}
	.st1{fill:#606060;}
	.st2{opacity:0.11;fill:#161616;enable-background:new    ;}
	.st3{opacity:0.28;fill:#161616;enable-background:new    ;}
	.st4{opacity:0.52;fill:#161616;enable-background:new    ;}
	.st5{opacity:0.24;}
	.st6{fill:url(#SVGID_2_);}
	.st7{fill:url(#SVGID_3_);}
	.st8{fill:url(#SVGID_4_);}
	.st9{fill:url(#SVGID_5_);}
	.st10{fill:url(#SVGID_6_);}
	.st11{fill:url(#SVGID_7_);}
	.st12{fill:url(#SVGID_8_);}
</style>
<image style="overflow:visible;enable-background:new    ;" width="1283" height="273" xlink:href="123123124.jpg" >
</image>
<linearGradient id="SVGID_1_" gradientUnits="userSpaceOnUse" x1="0" y1="2668.5" x2="1283" y2="2668.5" gradientTransform="matrix(1 0 0 1 0 -2532)">
	<stop  offset="0" style="stop-color:#007CE2"/>
	<stop  offset="1" style="stop-color:#11CC16"/>
</linearGradient>
<rect class="st0" width="1283" height="273"/>
<rect x="-769" y="-132.9" class="st1" width="769" height="589.1"/>
<polygon class="st2" points="1144.7,0 -138.3,0 47.6,273 958.8,273 "/>
<polygon class="st3" points="997.1,0 -285.9,0 -100,273 811.2,273 "/>
<polygon class="st4" points="859,0 -424,0 -238.1,273 673.1,273 "/>
<rect x="-482.5" y="-137.1" class="st1" width="482.5" height="547.2"/>
<rect x="1283" y="-112" class="st1" width="371.5" height="547.2"/>
<g class="st5">
	
		<linearGradient id="SVGID_2_" gradientUnits="userSpaceOnUse" x1="206.3583" y1="-746.5858" x2="848.9583" y2="-707.7058" gradientTransform="matrix(1 0 0 -1 0 -532)">
		<stop  offset="0" style="stop-color:#FFFFFF;stop-opacity:0"/>
		<stop  offset="1" style="stop-color:#FFFFFF"/>
	</linearGradient>
	<polygon class="st6" points="309.7,191 296.2,204.4 282.7,191 278,195.6 291.5,209.1 278,222.6 282.7,227.3 296.2,213.8 
		309.7,227.3 314.3,222.6 300.8,209.1 314.3,195.6 	"/>
	
		<linearGradient id="SVGID_3_" gradientUnits="userSpaceOnUse" x1="210.0967" y1="-808.3732" x2="852.6965" y2="-769.4933" gradientTransform="matrix(1 0 0 -1 0 -532)">
		<stop  offset="0" style="stop-color:#FFFFFF;stop-opacity:0"/>
		<stop  offset="1" style="stop-color:#FFFFFF"/>
	</linearGradient>
	<polygon class="st7" points="431.4,223.3 400.6,254.2 369.7,223.3 359.1,234 389.9,264.8 359.1,295.7 369.7,306.4 400.6,275.5 
		431.4,306.4 442.1,295.7 411.3,264.8 442.1,234 	"/>
	
		<linearGradient id="SVGID_4_" gradientUnits="userSpaceOnUse" x1="204.9766" y1="-723.75" x2="847.5764" y2="-684.87" gradientTransform="matrix(1 0 0 -1 0 -532)">
		<stop  offset="0" style="stop-color:#FFFFFF;stop-opacity:0"/>
		<stop  offset="1" style="stop-color:#FFFFFF"/>
	</linearGradient>
	<polygon class="st8" points="453.9,161.6 442.1,173.3 430.4,161.6 426.3,165.7 438,177.4 426.3,189.2 430.4,193.2 442.1,181.5 
		453.9,193.2 457.9,189.2 446.2,177.4 457.9,165.7 	"/>
	
		<linearGradient id="SVGID_5_" gradientUnits="userSpaceOnUse" x1="206.3322" y1="-746.1559" x2="848.9323" y2="-707.2761" gradientTransform="matrix(1 0 0 -1 0 -532)">
		<stop  offset="0" style="stop-color:#FFFFFF;stop-opacity:0"/>
		<stop  offset="1" style="stop-color:#FFFFFF"/>
	</linearGradient>
	<polygon class="st9" points="626.7,140.3 589.1,177.9 551.4,140.3 538.4,153.3 576,191 538.4,228.6 551.4,241.7 589.1,204 
		626.7,241.7 639.8,228.6 602.1,191 639.8,153.3 	"/>
	
		<linearGradient id="SVGID_6_" gradientUnits="userSpaceOnUse" x1="198.9633" y1="-624.3629" x2="841.563" y2="-585.4829" gradientTransform="matrix(1 0 0 -1 0 -532)">
		<stop  offset="0" style="stop-color:#FFFFFF;stop-opacity:0"/>
		<stop  offset="1" style="stop-color:#FFFFFF"/>
	</linearGradient>
	<polygon class="st10" points="564.1,97.3 585.1,76.3 606.1,97.3 613.3,90 592.3,69 613.3,48 606.1,40.7 585.1,61.7 564.1,40.7 
		556.8,48 577.8,69 556.8,90 	"/>
	
		<linearGradient id="SVGID_7_" gradientUnits="userSpaceOnUse" x1="201.5878" y1="-667.7405" x2="844.1876" y2="-628.8605" gradientTransform="matrix(1 0 0 -1 0 -532)">
		<stop  offset="0" style="stop-color:#FFFFFF;stop-opacity:0"/>
		<stop  offset="1" style="stop-color:#FFFFFF"/>
	</linearGradient>
	<polygon class="st11" points="702.5,88.1 689,101.5 675.5,88.1 670.9,92.7 684.3,106.2 670.9,119.7 675.5,124.4 689,110.9 
		702.5,124.4 707.1,119.7 693.7,106.2 707.1,92.7 	"/>
	
		<linearGradient id="SVGID_8_" gradientUnits="userSpaceOnUse" x1="195.4316" y1="-565.9923" x2="838.0316" y2="-527.1124" gradientTransform="matrix(1 0 0 -1 0 -532)">
		<stop  offset="0" style="stop-color:#FFFFFF;stop-opacity:0"/>
		<stop  offset="1" style="stop-color:#FFFFFF"/>
	</linearGradient>
	<polygon class="st12" points="799,-31 788.2,-41.7 757.3,-10.7 726.3,-41.7 715.6,-31 746.6,0 715.6,31 726.3,41.7 757.3,10.7 
		788.2,41.7 799,31 768,0 	"/>
</g>
<rect x="-350.7" y="273" class="st1" width="2079.4" height="276.1"/>
<rect x="-324.1" y="-276.1" class="st1" width="2079.4" height="276.1"/>
</svg>
