<svg xmlns="http://www.w3.org/2000/svg" viewBox="0 0 196.973 196.973" width="24" height="24"><path d="M178.024.531h-51.983c-10.448 0-18.948 8.501-18.948 18.949v51.983c0 10.448 8.5 18.948 18.948 18.948h51.983c10.448 0 18.948-8.5 18.948-18.948V19.48C196.973 9.032 188.473.531 178.024.531zm-5.408 52.44h-41.167c-4.142 0-7.5-3.357-7.5-7.5s3.358-7.5 7.5-7.5h41.167c4.142 0 7.5 3.357 7.5 7.5s-3.358 7.5-7.5 7.5zM70.932.531H18.948C8.5.531 0 9.032 0 19.48v51.983c0 10.448 8.5 18.948 18.948 18.948h51.983c10.448 0 18.948-8.5 18.948-18.948V19.48C89.88 9.032 81.38.531 70.932.531zm-5.147 52.44H52.701v13.083c0 4.143-3.358 7.5-7.5 7.5s-7.5-3.357-7.5-7.5V52.971H24.618c-4.142 0-7.5-3.357-7.5-7.5s3.358-7.5 7.5-7.5h13.083V24.888c0-4.143 3.358-7.5 7.5-7.5s7.5 3.357 7.5 7.5v13.083h13.083c4.142 0 7.5 3.357 7.5 7.5s-3.357 7.5-7.499 7.5zm5.147 53.591H18.948C8.5 106.562 0 115.062 0 125.51v51.983c0 10.448 8.5 18.948 18.948 18.948h51.983c10.448 0 18.948-8.5 18.948-18.948V125.51c.001-10.448-8.499-18.948-18.947-18.948zm-5.873 54.19a7.5 7.5 0 01-10.606 10.607l-9.251-9.251-9.251 9.251c-1.464 1.464-3.384 2.196-5.303 2.196s-3.839-.732-5.303-2.196a7.5 7.5 0 010-10.607l9.251-9.251-9.251-9.251a7.5 7.5 0 0110.606-10.607l9.251 9.251 9.251-9.251a7.501 7.501 0 0110.606 10.607l-9.251 9.251 9.251 9.251zm112.965-54.19h-51.983c-10.448 0-18.948 8.5-18.948 18.948v51.983c0 10.448 8.5 18.948 18.948 18.948h51.983c10.448 0 18.948-8.5 18.948-18.948V125.51c.001-10.448-8.499-18.948-18.948-18.948zm-25.991 15.189h1.167c4.142 0 7.5 3.357 7.5 7.5s-3.358 7.5-7.5 7.5h-1.167c-4.142 0-7.5-3.357-7.5-7.5s3.358-7.5 7.5-7.5zm1.166 59.5h-1.167c-4.142 0-7.5-3.357-7.5-7.5s3.358-7.5 7.5-7.5h1.167c4.142 0 7.5 3.357 7.5 7.5s-3.358 7.5-7.5 7.5zm19.417-22.25h-41.167c-4.142 0-7.5-3.357-7.5-7.5s3.358-7.5 7.5-7.5h41.167c4.142 0 7.5 3.357 7.5 7.5s-3.358 7.5-7.5 7.5z" fill="#ffd570"/></svg>